<?xml version="1.0" encoding="utf-8"?>
<svg viewBox="0.7106 1.093 498.5791 497.815" xmlns="http://www.w3.org/2000/svg">
  <path d="M 250 498.908 C 441.617 498.908 561.379 291.485 465.569 125.546 C 421.105 48.535 338.931 1.093 250 1.093 C 58.382 1.093 -61.378 208.516 34.431 374.454 C 78.896 451.466 161.07 498.908 250 498.908 Z M 250 125.546 C 262.932 125.546 273.336 135.95 273.336 148.881 L 273.336 257.778 C 273.336 270.71 262.932 281.113 250 281.113 C 237.068 281.113 226.664 270.71 226.664 257.778 L 226.664 148.881 C 226.664 135.95 237.068 125.546 250 125.546 Z M 218.886 343.342 C 218.886 319.389 244.813 304.42 265.558 316.395 C 275.183 321.954 281.115 332.224 281.115 343.342 C 281.115 367.292 255.186 382.261 234.443 370.287 C 224.816 364.727 218.886 354.456 218.886 343.342 Z" style="fill: rgb(220, 53, 69);" transform="matrix(1, 0, 0, 1, -7.105427357601002e-15, 0)"/>
</svg>